# xmcd CD database file
#
# Track frame offsets:
#	150
#	11587
#	23839
#	29920
#	51527
#	67939
#	88490
#	105513
#	140298
#	160250
#	195803
#	208770
#	225309
#	246805
#	275757
#	297127
#	316268
#
# Disc length: 4481 seconds
#
# Revision: 1
# Processed by: cddbd v1.4PL0 Copyright (c) Steve Scherf et al.
# Submitted via: CDex 1.50
#
DISCID=ef117f11
DTITLE=VANGELIS - 1990 REPRISE 1999
DYEAR=1900
DGENRE=New Age
TTITLE0=Bon Voyage
TTITLE1=Dreams Of Surf
TTITLE2=Opening
TTITLE3=Conquest Of Paradise
TTITLE4=Monastery Of La Rabida
TTITLE5=Come To Me
TTITLE6=Light And Shadow
TTITLE7=Fields Of Coral
TTITLE8="El Greco" Movement 5
TTITLE9="El Greco" Movement 6
TTITLE10=West Across The Ocean Sea
TTITLE11=Theme from "Bitter Moon"
TTITLE12=Rachel's Song
TTITLE13="El Greco" Movement 4
TTITLE14=Psalmus Ode Theme from "The Plague"
TTITLE15=Dawn
TTITLE16=Prelude
EXTD=
EXTT0=
EXTT1=
EXTT2=
EXTT3=
EXTT4=
EXTT5=
EXTT6=
EXTT7=
EXTT8=
EXTT9=
EXTT10=
EXTT11=
EXTT12=
EXTT13=
EXTT14=
EXTT15=
EXTT16=
PLAYORDER=
